<?xml version="1.0" encoding="UTF-8" standalone="no"?>
<svg
   t="1720334621409"
   class="icon"
   viewBox="0 0 1024 1024"
   version="1.1"
   p-id="3843"
   width="200"
   height="200"
   id="svg3"
   sodipodi:docname="pri-rule-ico2.svg"
   inkscape:version="1.3.2 (091e20e, 2023-11-25, custom)"
   xmlns:inkscape="http://www.inkscape.org/namespaces/inkscape"
   xmlns:sodipodi="http://sodipodi.sourceforge.net/DTD/sodipodi-0.dtd"
   xmlns="http://www.w3.org/2000/svg"
   xmlns:svg="http://www.w3.org/2000/svg">
  <defs
     id="defs3" />
  <sodipodi:namedview
     id="namedview3"
     pagecolor="#ffffff"
     bordercolor="#000000"
     borderopacity="0.25"
     inkscape:showpageshadow="2"
     inkscape:pageopacity="0.0"
     inkscape:pagecheckerboard="0"
     inkscape:deskcolor="#d1d1d1"
     inkscape:zoom="2.96"
     inkscape:cx="99.831081"
     inkscape:cy="100"
     inkscape:window-width="1440"
     inkscape:window-height="788"
     inkscape:window-x="-6"
     inkscape:window-y="-6"
     inkscape:window-maximized="1"
     inkscape:current-layer="svg3" />
  <path
     d="m 916.6802,441.33427 a 31.641596,30.914455 0 0 1 -19.30349,-6.40255 L 508.9933,144.25138 128.59952,424.70556 c -14.01158,10.32996 -33.938881,7.60641 -44.511811,-6.0814 -10.57292,-13.6887 -7.78532,-33.15894 6.22445,-43.48889 L 489.99309,80.460988 c 11.39922,-8.403955 27.13421,-8.348065 38.46987,0.135734 L 936.02909,385.63289 c 13.93346,10.42843 16.57576,29.91819 5.9021,43.53148 -6.25622,7.9799 -15.70049,12.16901 -25.25099,12.1699 z"
     fill="#fcca00"
     p-id="3844"
     id="path1"
     style="stroke-width:0.897521" />
  <path
     d="M 348.02151,857.84405 H 187.40388 c -16.85234,0 -30.51379,-12.78012 -30.51379,-28.54528 V 399.23331 c 0,-15.76514 13.66145,-28.54526 30.51379,-28.54526 16.85233,0 30.51379,12.78012 30.51379,28.54526 v 401.5202 h 130.10297 c 16.85234,0 30.51379,12.78012 30.51379,28.54526 0,15.76516 -13.66058,28.54528 -30.51292,28.54528 z m 496.0244,0 H 673.95068 c -16.85233,0 -30.51379,-12.78012 -30.51379,-28.54528 0,-15.76514 13.66146,-28.54526 30.51379,-28.54526 h 139.5823 V 396.82002 c 0,-15.76515 13.66146,-28.54527 30.5138,-28.54527 16.85233,0 30.51379,12.78012 30.51379,28.54527 v 432.47875 c -8.7e-4,15.76516 -13.66146,28.54528 -30.51466,28.54528 z"
     fill="#fcca00"
     p-id="3845"
     id="path2"
     style="stroke-width:0.843232" />
  <path
     d="m 411.96445,744.99799 a 26.945119,28.051733 0 0 1 -19.74944,-8.96828 l -48.79083,-54.72256 c -9.84007,-11.03684 -9.55446,-28.19199 0.64667,-38.86657 l 87.45751,-91.51897 c -2.52123,-9.38343 -5.03783,-21.68978 -5.98473,-35.71845 -2.85456,-42.2952 9.89474,-79.49554 36.87065,-107.57933 24.92814,-25.95272 56.94034,-39.67043 92.57385,-39.67043 31.79665,0 55.69166,10.81804 58.31219,12.05148 a 26.943579,28.05013 0 0 1 8.34351,44.97606 l -47.79003,51.87339 10.86858,10.60566 50.12727,-49.05868 a 26.942809,28.049329 0 0 1 43.61674,10.40369 c 1.4573,3.95919 34.99532,97.68777 -24.80497,159.54248 -22.88037,23.66617 -52.50453,36.17608 -85.66917,36.17769 -15.83712,0 -29.8197,-2.81792 -40.14939,-5.7833 l -97.09281,98.31451 a 26.948198,28.054939 0 0 1 -18.7856,7.94161 z m -11.42825,-82.09946 12.4121,13.92047 89.19042,-90.31358 c 8.06175,-8.16282 19.82642,-10.40689 29.98521,-5.40661 1.21865,0.54739 16.73783,7.32369 35.86678,7.32369 19.16205,-8e-4 34.76129,-6.5014 47.68919,-19.87448 14.67928,-15.18277 19.19361,-35.29689 19.50539,-53.4771 l -31.98217,31.30083 c -10.36126,10.14081 -26.50862,10.15123 -36.88296,0.0272 l -49.20577,-48.02079 a 26.944349,28.050932 0 0 1 -1.01773,-39.88201 l 31.42635,-34.11154 c -18.16588,1.63257 -33.94988,9.31852 -47.00403,22.9088 -15.83327,16.48272 -22.97275,38.00821 -21.21983,63.97616 1.35491,20.07565 7.65527,35.45477 7.71763,35.60144 a 26.944349,28.050932 0 0 1 -5.48202,31.26557 z"
     fill="#fcca00"
     p-id="3846"
     id="path3"
     style="stroke-width:0.785488" />
</svg>
