<svg t="1719826524179" class="icon" viewBox="0 0 1024 1024" version="1.1"
  xmlns="http://www.w3.org/2000/svg" p-id="5572" xmlns:xlink="http://www.w3.org/1999/xlink"
  width="200" height="200">
  <path
    d="M98.133333 170.666667c0-17.066667 12.8-29.866667 29.866667-29.866667h725.333333c17.066667 0 29.866667 12.8 29.866667 29.866667v213.333333c0 17.066667-12.8 29.866667-29.866667 29.866667s-29.866667-12.8-29.866666-29.866667V200.533333H157.866667v494.933334h290.133333c17.066667 0 29.866667 12.8 29.866667 29.866666s-12.8 29.866667-29.866667 29.866667H128c-17.066667 0-29.866667-12.8-29.866667-29.866667V170.666667z"
    fill="#32FFF6" p-id="5573"></path>
  <path
    d="M110.933333 277.333333h768V341.333333h-768zM247.466667 426.666667h234.666666c17.066667 0 34.133333 12.8 34.133334 34.133333 0 17.066667-12.8 34.133333-34.133334 34.133333H247.466667c-17.066667 0-34.133333-12.8-34.133334-34.133333s12.8-34.133333 34.133334-34.133333z"
    fill="#32FFF6" p-id="5574"></path>
  <path
    d="M896 554.666667h-55.466667v-17.066667c0-51.2-38.4-98.133333-93.866666-98.133333s-93.866667 46.933333-93.866667 98.133333v17.066667H597.333333c-25.6 0-42.666667 17.066667-42.666666 42.666666v256c0 25.6 17.066667 42.666667 42.666666 42.666667h298.666667c25.6 0 42.666667-17.066667 42.666667-42.666667v-256c0-25.6-17.066667-42.666667-42.666667-42.666666z m-183.466667-17.066667c0-21.333333 17.066667-38.4 34.133334-38.4s34.133333 17.066667 34.133333 38.4v17.066667h-68.266667v-17.066667z m166.4 298.666667h-264.533333v-221.866667h264.533333v221.866667z"
    fill="#32FFF6" p-id="5575"></path>
  <path
    d="M712.533333 729.6c-8.533333-8.533333-17.066667-21.333333-17.066666-34.133333s4.266667-25.6 17.066666-34.133334c8.533333-8.533333 21.333333-17.066667 34.133334-17.066666s25.6 4.266667 34.133333 17.066666c8.533333 8.533333 17.066667 21.333333 17.066667 34.133334s-4.266667 25.6-17.066667 34.133333l-4.266667 4.266667v34.133333c0 17.066667-12.8 29.866667-29.866666 29.866667s-29.866667-12.8-29.866667-29.866667v-34.133333c-4.266667 0-4.266667 0-4.266667-4.266667z"
    fill="#32FFF6" p-id="5576"></path>
</svg>