<svg t="1719830795566" class="icon" viewBox="0 0 1024 1024" version="1.1"
  xmlns="http://www.w3.org/2000/svg" p-id="1107" width="200" height="200">
  <path
    d="M738.986667 284.970667l-131.285334 35.157333c-23.850667 6.4-42.496 32.256-35.2 59.477333l129.578667 483.584c7.296 27.264 32.426667 41.386667 60.245333 33.92l131.242667-35.157333c27.818667-7.466667 42.496-32.256 35.2-59.52L799.146667 318.933333c-7.296-27.264-32.426667-41.386667-60.245334-33.92z m128.426666 521.386666l-111.36 29.866667L631.68 372.053333l111.36-29.824L867.413333 806.4z"
    fill="#FFFFFF" p-id="1108"></path>
  <path
    d="M313.258667 170.666667H177.408C152.661333 170.666667 128 190.805333 128 219.008v628.650667C128 875.818667 148.565333 896 177.408 896h135.850667c28.842667 0 49.408-20.138667 49.408-48.341333V219.008C362.666667 190.848 342.101333 170.666667 313.258667 170.666667z m-6.570667 664.064H187.306667V226.261333h115.285333v608.426667h4.096zM579.456 170.666667h-135.850667c-24.704 0-49.408 20.138667-49.408 48.341333v628.650667c0 28.16 20.608 48.341333 49.408 48.341333h135.850667c28.842667 0 49.408-20.138667 49.408-48.341333V219.008c0-28.16-20.565333-48.341333-49.408-48.341333z m-6.656 664.874666h-119.381333V227.114667h115.242666v608.426666h4.138667z"
    fill="#FFFFFF" p-id="1109"></path>
  <path
    d="M511.573333 507.733333c18.261333 0 32-13.482667 32-31.445333V283.178667a30.976 30.976 0 0 0-32-31.445334 30.976 30.976 0 0 0-32 31.445334v193.109333c0 13.482667 13.653333 31.445333 32 31.445333z"
    fill="#FFFFFF" p-id="1110"></path>
</svg>